<svg width="15" height="15" viewBox="0 0 15 15" fill="none" xmlns="http://www.w3.org/2000/svg">
<path d="M0 7.33355C0 10.3365 1.80571 12.9162 4.38961 14.0505C4.36899 13.5384 4.38595 12.9236 4.51726 12.3665C4.65825 11.7711 5.46085 8.37042 5.46085 8.37042C5.46085 8.37042 5.22658 7.90217 5.22658 7.21014C5.22658 6.12336 5.85645 5.3117 6.64088 5.3117C7.30792 5.3117 7.63019 5.81272 7.63019 6.41268C7.63019 7.08324 7.20251 8.08625 6.98257 9.01525C6.79883 9.79317 7.37261 10.4277 8.14003 10.4277C9.52946 10.4277 10.4653 8.64308 10.4653 6.52864C10.4653 4.92136 9.38273 3.71834 7.4138 3.71834C5.18929 3.71834 3.80346 5.3773 3.80346 7.23036C3.80346 7.86929 3.99184 8.31984 4.28689 8.66875C4.42256 8.82899 4.4414 8.89345 4.39231 9.07747C4.35713 9.21239 4.27635 9.53724 4.24289 9.66598C4.19408 9.85172 4.04357 9.91812 3.87571 9.84954C2.85111 9.43125 2.37393 8.30918 2.37393 7.04783C2.37393 4.96462 4.13083 2.46667 7.61506 2.46667C10.4149 2.46667 12.2577 4.49276 12.2577 6.66764C12.2577 9.54446 10.6583 11.6937 8.30078 11.6937C7.50907 11.6937 6.76434 11.2657 6.50922 10.7796C6.50922 10.7796 6.08349 12.4692 5.99331 12.7955C5.83783 13.3609 5.53349 13.9261 5.25523 14.3665C5.91477 14.5612 6.61149 14.6673 7.33359 14.6673C11.3832 14.6673 14.6667 11.3839 14.6667 7.33355C14.6667 3.28337 11.3832 0 7.33359 0C3.2836 0 0 3.28337 0 7.33355Z" fill="#343D50"/>
</svg>
